<svg fill="#000000" xmlns="http://www.w3.org/2000/svg"  viewBox="0 0 16 16" width="64px" height="64px">
<style type="text/css">
	.st0{fill: #031019;}
</style>
<path class="st0" d="M10.644,8.983C10.472,8.89,9.625,8.441,9.468,8.38C9.31,8.317,9.195,8.287,9.08,8.472C8.965,8.658,8.635,9.076,8.535,9.199c-0.1,0.124-0.201,0.139-0.373,0.047C7.989,9.153,7.434,8.957,6.777,8.325C6.265,7.833,5.919,7.226,5.819,7.04c-0.1-0.186-0.011-0.286,0.076-0.378c0.077-0.083,0.172-0.217,0.258-0.325S6.267,6.15,6.325,6.027c0.058-0.124,0.029-0.232-0.014-0.325S5.923,4.695,5.779,4.324C5.64,3.963,5.497,4.012,5.392,4.006C5.291,4.001,5.177,4,5.062,4C4.947,4,4.76,4.047,4.603,4.232C4.445,4.418,4,4.867,4,5.78s0.617,1.795,0.703,1.919C4.789,7.823,5.917,9.697,7.645,10.5c0.411,0.191,0.732,0.305,0.982,0.391c0.412,0.141,0.788,0.121,1.085,0.073c0.331-0.053,1.019-0.449,1.162-0.882c0.144-0.433,0.144-0.805,0.1-0.882C10.932,9.122,10.817,9.076,10.644,8.983z"/><path fill="none" stroke="#031019" stroke-miterlimit="10" d="M7.5,1.5c-3.314,0-6,2.686-6,6c0,1.295,0.415,2.492,1.113,3.472L1.75,13.375L4.4,12.63c0.906,0.549,1.964,0.87,3.1,0.87c3.314,0,6-2.686,6-6S10.814,1.5,7.5,1.5z"/></svg>