<svg fill="#000000" xmlns="http://www.w3.org/2000/svg"  viewBox="0 0 16 16" width="64px" height="64px">
<style type="text/css">
	.st0{fill: #031019;}
</style>
<path class="st0" d="M5.25,10C4.285,10,3.5,9.103,3.5,8s0.785-2,1.75-2S7,6.897,7,8S6.215,10,5.25,10z M5.25,7C4.844,7,4.5,7.458,4.5,8	s0.344,1,0.75,1S6,8.542,6,8S5.656,7,5.25,7z"/><path class="st0" d="M10.75,10C9.785,10,9,9.103,9,8s0.785-2,1.75-2s1.75,0.897,1.75,2S11.715,10,10.75,10z M10.75,7C10.344,7,10,7.458,10,8	s0.344,1,0.75,1s0.75-0.458,0.75-1S11.156,7,10.75,7z"/><path class="st0" d="M13.808,3.44c-1.385-1.101-3.147-1.419-3.221-1.432l-0.269-0.047l-0.185,0.2c-0.051,0.054-0.446,0.5-0.671,0.961	C8.796,3.017,8.255,3,8,3C7.746,3,7.205,3.019,6.541,3.123C6.315,2.662,5.919,2.214,5.868,2.16l-0.185-0.2L5.414,2.007	C5.34,2.02,3.578,2.337,2.168,3.461C1.351,4.207,0,8.273,0,11.5v0.134l0.066,0.116c1.026,1.783,3.809,2.229,4.498,2.25l0.284,0.009	l1.058-1.649l-0.064-0.041C6.438,12.422,7.147,12.5,8,12.5c0.827,0,1.519-0.073,2.104-0.172l1.043,1.68L11.436,14	c0.689-0.021,3.472-0.467,4.498-2.25L16,11.634V11.5C16,8.273,14.649,4.207,13.808,3.44z M11.683,12.977l-0.541-0.872	c0.707-0.2,1.075-0.403,1.104-0.42l-0.49-0.872C11.743,10.82,10.484,11.5,8,11.5s-3.743-0.68-3.756-0.687l-0.49,0.872	c0.029,0.017,0.405,0.223,1.124,0.425l-0.557,0.867c-0.855-0.106-2.623-0.575-3.32-1.618C1.04,8.111,2.402,4.601,2.816,4.222	C3.702,3.517,4.81,3.179,5.315,3.054c0.078,0.098,0.157,0.209,0.226,0.318C5.72,3.703,5.861,3.97,5.972,4.255	C6.935,4.018,7.771,4,8,4c0.232,0,1.093,0.019,2.076,0.267l0.412-0.928c-0.003-0.001-0.005-0.001-0.008-0.002	c0.064-0.097,0.135-0.195,0.204-0.283c0.504,0.125,1.607,0.458,2.473,1.146c0.439,0.401,1.802,3.911,1.841,7.16	C14.302,12.401,12.541,12.87,11.683,12.977z"/></svg>